<svg width="24" height="24" viewBox="0 0 24 24" fill="none" xmlns="http://www.w3.org/2000/svg">
<path d="M7.65595 18.6729C6.27214 18.6729 5.15039 19.7947 5.15039 21.1784C5.15039 22.5622 6.27219 23.684 7.65595 23.684C9.03976 23.684 10.1615 22.5622 10.1615 21.1784C10.1616 19.7947 9.03976 18.6729 7.65595 18.6729ZM7.65595 22.5704C6.88718 22.5704 6.26398 21.9472 6.26398 21.1785C6.26398 20.4097 6.88718 19.7865 7.65595 19.7865C8.42472 19.7865 9.04791 20.4097 9.04791 21.1785C9.04796 21.9472 8.42472 22.5704 7.65595 22.5704Z" fill="white"/>
<path d="M18.235 18.6729C16.8512 18.6729 15.7295 19.7947 15.7295 21.1784C15.7295 22.5622 16.8513 23.684 18.235 23.684C19.6188 23.684 20.7406 22.5622 20.7406 21.1784C20.7406 19.7947 19.6189 18.6729 18.235 18.6729ZM18.235 22.5704C17.4663 22.5704 16.8431 21.9472 16.8431 21.1785C16.8431 20.4097 17.4663 19.7865 18.235 19.7865C19.0038 19.7865 19.627 20.4097 19.627 21.1785C19.6271 21.9472 19.0038 22.5704 18.235 22.5704Z" fill="white"/>
<path d="M23.8865 4.05699C23.7705 3.93032 23.6119 3.85103 23.4411 3.83425L5.31741 3.58369L4.8163 2.05249C4.46327 1.0289 3.50474 0.337873 2.42206 0.326416H0.556796C0.249277 0.326416 0 0.575693 0 0.883212C0 1.19073 0.249277 1.44001 0.556796 1.44001H2.42206C3.02745 1.45338 3.56053 1.84211 3.75839 2.41442L7.29404 13.077L7.01567 13.7173C6.70516 14.518 6.79841 15.4192 7.26622 16.1394C7.72955 16.8467 8.50903 17.2833 9.35422 17.3087H20.1839C20.4914 17.3087 20.7407 17.0594 20.7407 16.7519C20.7407 16.4444 20.4914 16.1951 20.1839 16.1951H9.35417C8.87687 16.1831 8.43752 15.9321 8.18489 15.5269C7.93508 15.1267 7.88376 14.6337 8.0457 14.1906L8.26844 13.6895L19.989 12.4645C21.2764 12.3227 22.3354 11.3864 22.6338 10.126L23.9701 4.53018C24.0303 4.36904 23.9983 4.18781 23.8865 4.05699ZM21.548 9.87545C21.3673 10.6868 20.6784 11.2853 19.8498 11.351L8.26844 12.5481L5.67933 4.69729L22.7451 4.94784L21.548 9.87545Z" fill="white"/>
</svg>
