<svg width="19" height="19" viewBox="0 0 19 19" fill="none" xmlns="http://www.w3.org/2000/svg">
<g clip-path="url(#clip0_30014_980)">
<path d="M19 9.55806C19 4.27932 14.7467 0 9.5 0C4.25333 0 0 4.27932 0 9.55806C0 14.3287 3.47403 18.283 8.01562 19V12.3209H5.60352V9.55806H8.01562V7.4523C8.01562 5.05681 9.43395 3.73362 11.604 3.73362C12.6433 3.73362 13.7305 3.9203 13.7305 3.9203V6.27248H12.5326C11.3524 6.27248 10.9844 7.00927 10.9844 7.76517V9.55806H13.6191L13.1979 12.3209H10.9844V19C15.526 18.283 19 14.3288 19 9.55806Z" fill="#1877F2"/>
<path d="M13.1979 12.2461L13.6191 9.5H10.9844V7.71801C10.9844 6.96662 11.3524 6.23438 12.5326 6.23438H13.7305V3.89648C13.7305 3.89648 12.6433 3.71094 11.6039 3.71094C9.43395 3.71094 8.01562 5.02609 8.01562 7.40703V9.5H5.60352V12.2461H8.01562V18.8846C8.50667 18.9615 9.00296 19.0001 9.5 19C9.99704 19.0001 10.4933 18.9615 10.9844 18.8846V12.2461H13.1979Z" fill="white"/>
</g>
<defs>
<clipPath id="clip0_30014_980">
<rect width="19" height="19" fill="white"/>
</clipPath>
</defs>
</svg>
