<svg width="25" height="24" viewBox="0 0 25 24" fill="none" xmlns="http://www.w3.org/2000/svg">
<path d="M8.73351 2.01709H17.127C20.3246 2.01709 22.9225 4.61508 22.9225 7.81261V16.2061C22.9225 17.7432 22.3119 19.2173 21.2251 20.3042C20.1382 21.391 18.6641 22.0016 17.127 22.0016H8.73351C5.53598 22.0016 2.93799 19.4037 2.93799 16.2061V7.81261C2.93799 6.27554 3.54859 4.80143 4.63546 3.71456C5.72233 2.62769 7.19644 2.01709 8.73351 2.01709ZM8.53366 4.01555C7.57962 4.01555 6.66465 4.39454 5.99005 5.06915C5.31544 5.74376 4.93644 6.65872 4.93644 7.61277V16.406C4.93644 18.3944 6.5452 20.0032 8.53366 20.0032H17.3269C18.2809 20.0032 19.1959 19.6242 19.8705 18.9496C20.5451 18.275 20.9241 17.36 20.9241 16.406V7.61277C20.9241 5.6243 19.3153 4.01555 17.3269 4.01555H8.53366ZM18.1762 5.51439C18.5075 5.51439 18.8252 5.64598 19.0594 5.88022C19.2937 6.11446 19.4252 6.43216 19.4252 6.76342C19.4252 7.09469 19.2937 7.41238 19.0594 7.64662C18.8252 7.88086 18.5075 8.01246 18.1762 8.01246C17.8449 8.01246 17.5273 7.88086 17.293 7.64662C17.0588 7.41238 16.9272 7.09469 16.9272 6.76342C16.9272 6.43216 17.0588 6.11446 17.293 5.88022C17.5273 5.64598 17.8449 5.51439 18.1762 5.51439ZM12.9303 7.01323C14.2553 7.01323 15.5261 7.53961 16.4631 8.47656C17.4 9.41352 17.9264 10.6843 17.9264 12.0094C17.9264 13.3344 17.4 14.6052 16.4631 15.5422C15.5261 16.4791 14.2553 17.0055 12.9303 17.0055C11.6052 17.0055 10.3344 16.4791 9.39746 15.5422C8.46051 14.6052 7.93413 13.3344 7.93413 12.0094C7.93413 10.6843 8.46051 9.41352 9.39746 8.47656C10.3344 7.53961 11.6052 7.01323 12.9303 7.01323ZM12.9303 9.01168C12.1352 9.01168 11.3728 9.32751 10.8106 9.88969C10.2484 10.4519 9.93258 11.2143 9.93258 12.0094C9.93258 12.8044 10.2484 13.5669 10.8106 14.1291C11.3728 14.6912 12.1352 15.0071 12.9303 15.0071C13.7253 15.0071 14.4878 14.6912 15.0499 14.1291C15.6121 13.5669 15.9279 12.8044 15.9279 12.0094C15.9279 11.2143 15.6121 10.4519 15.0499 9.88969C14.4878 9.32751 13.7253 9.01168 12.9303 9.01168Z" fill="#D4D4D4"/>
</svg>
