<svg width="24" height="25" viewBox="0 0 24 25" fill="none" xmlns="http://www.w3.org/2000/svg">
<g clip-path="url(#clip0_29945_5280)">
<path d="M20.6601 6.05853L15.5843 0.982807C15.2745 0.672869 14.8625 0.502197 14.4242 0.502197H4.5C3.59536 0.502197 2.85938 1.23818 2.85938 2.14282V22.8616C2.85938 23.7662 3.59536 24.5022 4.5 24.5022H19.5C20.4046 24.5022 21.1406 23.7662 21.1406 22.8616V7.21863C21.1406 6.78049 20.97 6.36851 20.6601 6.05853ZM18.74 6.1272H15.75C15.6208 6.1272 15.5156 6.02206 15.5156 5.89282V2.90285L18.74 6.1272ZM19.5 23.0959H4.5C4.37077 23.0959 4.26562 22.9908 4.26562 22.8616V2.14282C4.26562 2.01359 4.37077 1.90845 4.5 1.90845H14.1094V5.89282C14.1094 6.79746 14.8454 7.53345 15.75 7.53345H19.7344V22.8616C19.7344 22.9908 19.6292 23.0959 19.5 23.0959Z" fill="#101B24"/>
<path d="M12.7549 11.2366H17.2348C17.6231 11.2366 17.9379 10.9218 17.9379 10.5334C17.9379 10.1451 17.6231 9.83032 17.2348 9.83032H12.7549C12.3666 9.83032 12.0518 10.1451 12.0518 10.5334C12.0518 10.9218 12.3665 11.2366 12.7549 11.2366Z" fill="#101B24"/>
<path d="M12.7549 15.9241H17.2348C17.6231 15.9241 17.9379 15.6093 17.9379 15.2209C17.9379 14.8326 17.6231 14.5178 17.2348 14.5178H12.7549C12.3666 14.5178 12.0518 14.8326 12.0518 15.2209C12.0518 15.6093 12.3665 15.9241 12.7549 15.9241Z" fill="#101B24"/>
<path d="M17.2549 19.2053H12.7549C12.3666 19.2053 12.0518 19.5201 12.0518 19.9084C12.0518 20.2968 12.3666 20.6116 12.7549 20.6116H17.2549C17.6432 20.6116 17.958 20.2968 17.958 19.9084C17.958 19.5201 17.6432 19.2053 17.2549 19.2053Z" fill="#101B24"/>
<path d="M9.24616 8.61903L7.62466 10.2405L7.2423 9.85813C6.96775 9.58353 6.52253 9.58353 6.24794 9.85813C5.97334 10.1327 5.97334 10.5779 6.24794 10.8525L7.1275 11.732C7.2648 11.8693 7.44475 11.938 7.62466 11.938C7.80456 11.938 7.98456 11.8694 8.12181 11.732L10.2405 9.61339C10.5151 9.3388 10.5151 8.89362 10.2405 8.61903C9.96592 8.34444 9.5207 8.34444 9.24616 8.61903Z" fill="#101B24"/>
<path d="M9.24616 13.6644L7.62466 15.2859L7.2423 14.9036C6.96775 14.629 6.52253 14.629 6.24794 14.9036C5.97334 15.1782 5.97334 15.6234 6.24794 15.8979L7.1275 16.7775C7.2648 16.9148 7.44475 16.9834 7.62466 16.9834C7.80456 16.9834 7.98456 16.9148 8.12181 16.7774L10.2405 14.6588C10.5151 14.3842 10.5151 13.939 10.2405 13.6644C9.96592 13.3899 9.5207 13.3899 9.24616 13.6644Z" fill="#101B24"/>
<path d="M9.24616 18.3519L7.62466 19.9734L7.2423 19.5911C6.96775 19.3165 6.52253 19.3165 6.24794 19.5911C5.97334 19.8657 5.97334 20.3109 6.24794 20.5854L7.1275 21.465C7.2648 21.6023 7.44475 21.6709 7.62466 21.6709C7.80456 21.6709 7.98456 21.6023 8.12181 21.4649L10.2405 19.3463C10.5151 19.0717 10.5151 18.6265 10.2405 18.3519C9.96592 18.0774 9.5207 18.0774 9.24616 18.3519Z" fill="#101B24"/>
</g>
<defs>
<clipPath id="clip0_29945_5280">
<rect width="24" height="24" fill="white" transform="translate(0 0.502197)"/>
</clipPath>
</defs>
</svg>
