<svg width="25" height="24" viewBox="0 0 25 24" fill="none" xmlns="http://www.w3.org/2000/svg">
<path d="M19.3254 3.00684C19.8554 3.00684 20.3638 3.21739 20.7385 3.59217C21.1133 3.96695 21.3239 4.47527 21.3239 5.00529V18.9945C21.3239 19.5245 21.1133 20.0328 20.7385 20.4076C20.3638 20.7824 19.8554 20.9929 19.3254 20.9929H5.33622C4.8062 20.9929 4.29789 20.7824 3.9231 20.4076C3.54832 20.0328 3.33777 19.5245 3.33777 18.9945V5.00529C3.33777 4.47527 3.54832 3.96695 3.9231 3.59217C4.29789 3.21739 4.8062 3.00684 5.33622 3.00684H19.3254ZM18.8258 18.4949V13.199C18.8258 12.335 18.4826 11.5065 17.8717 10.8956C17.2608 10.2847 16.4323 9.94148 15.5683 9.94148C14.719 9.94148 13.7297 10.4611 13.2501 11.2405V10.1313H10.4623V18.4949H13.2501V13.5687C13.2501 12.7993 13.8696 12.1698 14.639 12.1698C15.0101 12.1698 15.3659 12.3171 15.6282 12.5795C15.8906 12.8418 16.038 13.1977 16.038 13.5687V18.4949H18.8258ZM7.21477 8.56254C7.65999 8.56254 8.08698 8.38568 8.40179 8.07086C8.71661 7.75604 8.89348 7.32906 8.89348 6.88384C8.89348 5.95456 8.14405 5.19514 7.21477 5.19514C6.7669 5.19514 6.33738 5.37306 6.02068 5.68975C5.70399 6.00644 5.52608 6.43597 5.52608 6.88384C5.52608 7.81312 6.28549 8.56254 7.21477 8.56254ZM8.6037 18.4949V10.1313H5.83584V18.4949H8.6037Z" fill="#D4D4D4"/>
</svg>
