<svg width="16" height="17" viewBox="0 0 16 17" fill="none" xmlns="http://www.w3.org/2000/svg">
<path d="M5.81322 13.4761C5.71959 13.3823 5.66699 13.2552 5.66699 13.1227C5.66699 12.9902 5.71959 12.8631 5.81322 12.7693L9.62655 8.95554L5.81322 5.14173C5.72495 5.04688 5.67688 4.92149 5.67912 4.79193C5.68135 4.66237 5.73372 4.53872 5.82522 4.44698C5.91695 4.35547 6.04059 4.30309 6.17013 4.30086C6.29968 4.29862 6.42504 4.34669 6.51989 4.43498L10.6866 8.60216C10.7802 8.69592 10.8328 8.82302 10.8328 8.95554C10.8328 9.08806 10.7802 9.21515 10.6866 9.30892L6.51989 13.4761C6.42614 13.5697 6.29905 13.6223 6.16655 13.6223C6.03405 13.6223 5.90697 13.5697 5.81322 13.4761Z" fill="white"/>
</svg>
