<svg width="24" height="24" viewBox="0 0 24 24" fill="none" xmlns="http://www.w3.org/2000/svg">
<g clip-path="url(#clip0_29945_4996)">
<path d="M23.7723 22.6995L17.5759 16.6022C19.1985 14.8392 20.1955 12.5077 20.1955 9.94207C20.1947 4.45376 15.6742 0.00524902 10.0974 0.00524902C4.52055 0.00524902 0 4.45376 0 9.94207C0 15.4304 4.52055 19.8789 10.0974 19.8789C12.5069 19.8789 14.7169 19.0454 16.4529 17.6599L22.6733 23.7813C22.9764 24.0799 23.4685 24.0799 23.7716 23.7813C24.0754 23.4827 24.0754 22.9981 23.7723 22.6995ZM10.0974 18.35C5.37878 18.35 1.55362 14.5857 1.55362 9.94207C1.55362 5.29846 5.37878 1.53409 10.0974 1.53409C14.816 1.53409 18.6411 5.29846 18.6411 9.94207C18.6411 14.5857 14.816 18.35 10.0974 18.35Z" fill="white"/>
</g>
<defs>
<clipPath id="clip0_29945_4996">
<rect width="24" height="24" fill="white" transform="translate(0 0.00524902)"/>
</clipPath>
</defs>
</svg>
