<svg width="24" height="25" viewBox="0 0 24 25" fill="none" xmlns="http://www.w3.org/2000/svg">
<path d="M8.68387 13.8566C8.88616 13.4528 9 12.997 9 12.5146C9 12.0323 8.88616 11.5765 8.68387 11.1727M8.68387 13.8566C8.19134 14.8397 7.17449 15.5146 6 15.5146C4.34315 15.5146 3 14.1715 3 12.5146C3 10.8578 4.34315 9.51465 6 9.51465C7.17449 9.51465 8.19134 10.1896 8.68387 11.1727M8.68387 13.8566L15.3161 17.1727M8.68387 11.1727L15.3161 7.85658M15.3161 7.85658C15.8087 8.83973 16.8255 9.51465 18 9.51465C19.6569 9.51465 21 8.1715 21 6.51465C21 4.85779 19.6569 3.51465 18 3.51465C16.3431 3.51465 15 4.85779 15 6.51465C15 6.99702 15.1138 7.4528 15.3161 7.85658ZM15.3161 17.1727C15.1138 17.5765 15 18.0323 15 18.5146C15 20.1715 16.3431 21.5146 18 21.5146C19.6569 21.5146 21 20.1715 21 18.5146C21 16.8578 19.6569 15.5146 18 15.5146C16.8255 15.5146 15.8087 16.1896 15.3161 17.1727Z" stroke="#101B24" stroke-linecap="round" stroke-linejoin="round"/>
</svg>
