<svg width="32" height="32" viewBox="0 0 32 32" fill="none" xmlns="http://www.w3.org/2000/svg">
<path d="M28 8H4M28 13.3333H4M14.6667 18.6667H4M14.6667 24H4" stroke="#7D7D7D" stroke-width="1.5" stroke-linecap="round"/>
<path d="M25.1665 18.824C27.3718 20.0973 28.4732 20.7346 28.6358 21.652C28.6764 21.8817 28.6764 22.1168 28.6358 22.3466C28.4745 23.2666 27.3718 23.9026 25.1665 25.1746C22.9612 26.448 21.8598 27.0853 20.9825 26.7666C20.7633 26.6866 20.5598 26.5688 20.3812 26.4186C19.6665 25.8186 19.6665 24.5466 19.6665 22C19.6665 19.4533 19.6665 18.18 20.3812 17.5813C20.5599 17.4316 20.7634 17.3143 20.9825 17.2346C21.8585 16.9146 22.9612 17.552 25.1665 18.824Z" stroke="#7D7D7D" stroke-width="1.5"/>
</svg>
