<svg width="25" height="24" viewBox="0 0 25 24" fill="none" xmlns="http://www.w3.org/2000/svg">
<path d="M12.8266 4.00635C13.681 4.00635 14.5573 4.02833 15.4066 4.0643L16.4099 4.11227L17.3701 4.16922L18.2694 4.23017L19.0908 4.29413C19.9823 4.36196 20.8213 4.74221 21.4599 5.3679C22.0986 5.99358 22.496 6.82456 22.5821 7.71448L22.6221 8.13915L22.697 9.04845C22.7669 9.99072 22.8189 11.0179 22.8189 12.0002C22.8189 12.9824 22.7669 14.0096 22.697 14.9519L22.6221 15.8612L22.5821 16.2859C22.4959 17.1759 22.0984 18.007 21.4595 18.6327C20.8207 19.2585 19.9815 19.6386 19.0898 19.7062L18.2704 19.7692L17.3711 19.8311L16.4099 19.8881L15.4066 19.936C14.5471 19.9733 13.6869 19.9926 12.8266 19.994C11.9663 19.9926 11.1061 19.9733 10.2466 19.936L9.2434 19.8881L8.28314 19.8311L7.38383 19.7692L6.56247 19.7062C5.67097 19.6384 4.83201 19.2581 4.19334 18.6324C3.55468 18.0068 3.15729 17.1758 3.07117 16.2859L3.0312 15.8612L2.95626 14.9519C2.88015 13.9698 2.83949 12.9852 2.83435 12.0002C2.83435 11.0179 2.88631 9.99072 2.95626 9.04845L3.0312 8.13915L3.07117 7.71448C3.15726 6.82472 3.55451 5.99386 4.19296 5.3682C4.83142 4.74254 5.67015 4.36219 6.56147 4.29413L7.38184 4.23017L8.28114 4.16922L9.2424 4.11227L10.2456 4.0643C11.1055 4.02706 11.966 4.00774 12.8266 4.00635ZM12.8266 6.0048C12.0023 6.0048 11.1539 6.02679 10.3286 6.06076L9.35131 6.10772L8.41304 6.16268L7.53172 6.22263L6.72434 6.28559C6.29987 6.3153 5.89967 6.49455 5.59488 6.79148C5.29008 7.08841 5.10043 7.48378 5.05963 7.90733C4.94272 9.1154 4.83281 10.6192 4.83281 12.0002C4.83281 13.3811 4.94272 14.8849 5.05963 16.093C5.14457 16.9643 5.83603 17.6418 6.72434 17.7148L7.53172 17.7767L8.41304 17.8367L9.35131 17.8926L10.3286 17.9396C11.1539 17.9736 12.0023 17.9955 12.8266 17.9955C13.651 17.9955 14.4993 17.9736 15.3247 17.9396L16.3019 17.8926L17.2402 17.8377L18.1215 17.7777L18.9289 17.7148C19.3534 17.685 19.7536 17.5058 20.0584 17.2089C20.3632 16.9119 20.5528 16.5166 20.5936 16.093C20.7105 14.8849 20.8205 13.3811 20.8205 12.0002C20.8205 10.6192 20.7105 9.1154 20.5936 7.90733C20.5528 7.48378 20.3632 7.08841 20.0584 6.79148C19.7536 6.49455 19.3534 6.3153 18.9289 6.28559L18.1215 6.22363L17.2402 6.16368L16.3019 6.10772L15.3247 6.06076C14.4925 6.02504 13.6596 6.00638 12.8266 6.0048ZM10.8282 9.57704C10.8281 9.47938 10.8519 9.38318 10.8975 9.29681C10.9431 9.21044 11.0091 9.13652 11.0897 9.08146C11.1704 9.0264 11.2633 8.99189 11.3603 8.98091C11.4574 8.96993 11.5556 8.98283 11.6465 9.01847L11.7275 9.05844L15.9242 11.4806C16.0078 11.5288 16.0785 11.5965 16.1303 11.6779C16.1821 11.7592 16.2136 11.8519 16.2219 11.9481C16.2302 12.0442 16.2153 12.1409 16.1782 12.23C16.1412 12.3191 16.0832 12.3979 16.0092 12.4598L15.9242 12.5198L11.7275 14.9429C11.6429 14.9919 11.5476 15.0194 11.45 15.0232C11.3523 15.0269 11.2552 15.0067 11.1672 14.9644C11.0791 14.922 11.0027 14.8587 10.9447 14.7801C10.8866 14.7015 10.8487 14.6099 10.8342 14.5132L10.8282 14.4233V9.57704Z" fill="#D4D4D4"/>
</svg>
